<?xml version="1.0" encoding="UTF-8" standalone="no"?>
<svg
   xmlns:dc="http://purl.org/dc/elements/1.1/"
   xmlns:cc="http://creativecommons.org/ns#"
   xmlns:rdf="http://www.w3.org/1999/02/22-rdf-syntax-ns#"
   xmlns:svg="http://www.w3.org/2000/svg"
   xmlns="http://www.w3.org/2000/svg"
   xmlns:sodipodi="http://sodipodi.sourceforge.net/DTD/sodipodi-0.dtd"
   xmlns:inkscape="http://www.inkscape.org/namespaces/inkscape"
   sodipodi:docname="Logo Escuela.svg"
   viewBox="0 0 726.25201 318.48376"
   height="339.716"
   width="774.66882"
   xml:space="preserve"
   inkscape:version="1.0 (4035a4fb49, 2020-05-01)"
   version="1.1"
   id="svg4136"><metadata
     id="metadata4142"><rdf:RDF><cc:Work
         rdf:about=""><dc:format>image/svg+xml</dc:format><dc:type
           rdf:resource="http://purl.org/dc/dcmitype/StillImage" /><dc:title /></cc:Work></rdf:RDF></metadata><defs
     id="defs4140"><clipPath
       id="clipPath4150"
       clipPathUnits="userSpaceOnUse"><path
         inkscape:connector-curvature="0"
         id="path4152"
         d="M 0,383.981 H 612 V 0 H 0 Z" /></clipPath><clipPath
       id="clipPath4170"
       clipPathUnits="userSpaceOnUse"><path
         inkscape:connector-curvature="0"
         id="path4172"
         d="M 0,383.981 H 612 V 0 H 0 Z" /></clipPath><clipPath
       id="clipPath4182"
       clipPathUnits="userSpaceOnUse"><path
         inkscape:connector-curvature="0"
         id="path4184"
         d="M 0,383.981 H 612 V 0 H 0 Z" /></clipPath></defs><sodipodi:namedview
     inkscape:document-rotation="0"
     inkscape:current-layer="g4144"
     inkscape:window-maximized="0"
     inkscape:window-y="1106"
     inkscape:window-x="154"
     inkscape:cy="118.98635"
     inkscape:cx="348.35507"
     inkscape:zoom="1.2007522"
     fit-margin-bottom="0"
     fit-margin-right="0"
     fit-margin-left="0"
     fit-margin-top="0"
     showgrid="false"
     id="namedview4138"
     inkscape:window-height="962"
     inkscape:window-width="1758"
     inkscape:pageshadow="2"
     inkscape:pageopacity="0"
     guidetolerance="10"
     gridtolerance="10"
     objecttolerance="10"
     borderopacity="1"
     bordercolor="#666666"
     pagecolor="#ffffff" /><g
     transform="matrix(1.25,0,0,-1.25,-23.74775,410.70138)"
     inkscape:label="Logo Escuela Original Horizontal"
     inkscape:groupmode="layer"
     id="g4144"><g
       id="g4146"><g
         clip-path="url(#clipPath4150)"
         id="g4148"><g
           transform="translate(156.3666,186.0784)"
           id="g4154"><path
             inkscape:connector-curvature="0"
             id="path4156"
             style="fill:#1d1d1d;fill-opacity:1;fill-rule:nonzero;stroke:none"
             d="m 0,0 -7.741,0.071 -2.194,0.835 -3.947,1.508 -0.292,4.381 -2.05,3.581 -5.546,0.073 -3.216,5.037 -2.849,1.389 -0.148,-1.533 -5.184,-0.306 -1.897,2.642 -5.412,1.099 -4.452,-5.149 -7.018,1.19 -0.508,7.906 -5.119,0.872 2.053,3.873 -0.588,2.23 -6.725,-4.493 -4.23,0.514 -1.513,3.304 0.925,3.407 2.337,4.301 5.365,2.719 10.373,0.007 -0.03,-3.163 3.727,-1.736 -0.296,5.406 2.684,2.7 5.427,3.562 0.363,2.507 5.41,5.625 5.748,3.182 -0.508,0.418 3.893,3.664 1.427,-0.379 0.652,-0.823 1.479,1.642 0.36,0.158 -1.62,0.228 -1.639,0.546 v 1.591 l 0.872,0.714 h 1.917 l 0.881,-0.386 0.762,-1.536 0.934,0.141 v 0.135 l 0.268,-0.09 2.691,0.415 0.38,1.321 1.537,-0.386 v -1.427 l -1.429,-0.983 h 0.008 l 0.207,-1.569 3.536,-1.086 1.35,-0.418 c 0,0 0.003,-0.026 0.005,-0.055 l 1.123,0.093 0.077,2.118 -2.555,1.164 -1.313,0.598 -0.217,1.016 1.53,0.524 1.676,0.572 0.143,3.072 -1.819,1.106 -1.53,0.935 -0.223,5.185 -4.602,-2.263 h -1.684 l 0.442,3.947 -6.267,1.479 -2.593,-1.958 v -5.972 l -4.657,-1.475 -1.868,-3.893 -2.023,-0.324 v 4.982 l -4.381,0.604 -2.192,1.427 -0.879,3.227 7.836,4.587 3.835,1.167 0.385,-2.575 2.138,0.113 0.165,1.295 2.233,0.318 0.035,0.453 -0.951,0.396 -0.224,1.369 2.745,0.231 1.662,1.73 0.092,0.122 0.015,-0.007 0.505,0.521 5.776,0.726 2.554,-2.166 -6.694,-3.565 8.518,-2.008 1.101,2.847 h 3.727 l 1.317,2.485 -2.637,0.659 v 3.137 l -1.676,0.746 -6.57,2.912 -5.707,-0.656 -3.212,-1.684 0.218,-4.089 -3.357,0.511 -0.526,2.26 3.228,2.928 -5.845,0.286 -1.68,-0.508 -0.731,-1.973 2.189,-0.367 -0.437,-2.192 -3.724,-0.218 -0.59,-1.459 -5.397,-0.148 c 0,0 -0.152,3.066 -0.371,3.066 -0.22,0 4.238,0.074 4.238,0.074 l 3.219,3.147 -1.761,0.874 -2.332,-2.266 -3.878,0.215 -2.335,3.221 h -4.969 l -5.19,-3.873 h 4.756 l 0.434,-1.392 -1.238,-1.167 5.26,-0.144 0.801,-1.9 -5.921,0.219 -0.291,1.462 -3.722,0.804 -1.973,1.092 -4.434,-0.035 c 0.012,0.009 0.024,0.018 0.036,0.026 -0.07,-0.006 -0.141,-0.01 -0.215,-0.01 -0.011,0 -0.021,0.001 -0.031,0.001 -12.651,-9.158 -22.759,-21.601 -29.075,-36.079 0.03,-0.247 0.042,-5.616 0.042,-5.616 l 3.65,-1.755 v -6.956 l 3.506,-5.975 2.845,-0.44 0.368,2.05 -3.357,5.188 -0.659,5.04 h 1.968 l 0.836,-5.188 4.862,-7.09 -1.259,-2.289 3.087,-4.725 7.673,-1.896 v 1.24 l 3.068,-0.437 -0.29,-2.192 2.409,-0.44 3.726,-1.019 5.258,-5.995 6.721,-0.504 0.656,-5.484 -4.596,-3.214 -0.218,-4.898 -0.659,-2.993 6.648,-8.328 0.514,-2.848 c 0,0 2.409,-0.655 2.7,-0.655 0.289,0 5.406,-3.877 5.406,-3.877 v -15.049 l 1.826,-0.514 -1.244,-6.936 3.071,-4.095 -0.569,-6.878 4.057,-7.129 5.207,-4.545 5.229,-0.097 0.511,1.678 -3.846,3.24 0.223,1.607 0.693,1.971 0.145,2.008 -2.597,0.071 -1.315,1.652 2.162,2.08 0.292,1.571 -2.411,0.688 0.142,1.46 3.436,0.52 5.225,2.514 1.752,3.214 4.239,5.425 1.247,1.589 -1.247,5.467 v 0.029 l 1.676,2.909 5.047,-0.151 3.392,2.687 1.094,10.574 3.764,4.783 0.661,3.073 -3.43,1.099 z" /></g><g
           transform="translate(131.2892,252.3246)"
           id="g4158"><path
             inkscape:connector-curvature="0"
             id="path4160"
             style="fill:#1d1d1d;fill-opacity:1;fill-rule:nonzero;stroke:none"
             d="M 0,0 2.267,0.191 2.496,1.769 1.138,2.841 0.12,1.578 Z" /></g><g
           transform="translate(138.8118,255.1655)"
           id="g4162"><path
             inkscape:connector-curvature="0"
             id="path4164"
             style="fill:#1d1d1d;fill-opacity:1;fill-rule:nonzero;stroke:none"
             d="m 0,0 h -3.116 v -1.614 h 0.739 c 0,0 0.048,-0.338 0.114,-0.789 l 1.908,0.16 L 0.84,-1.502 1.151,0 2.703,0.131 3.311,1.395 1.89,1.689 0.649,1.661 Z" /></g></g></g><g
       id="g4166"><g
         clip-path="url(#clipPath4170)"
         id="g4168"><g
           transform="translate(77.9032,149.8101)"
           id="g4174"><path
             inkscape:connector-curvature="0"
             id="path4176"
             style="fill:#298ba5;fill-opacity:1;fill-rule:nonzero;stroke:none"
             d="m 0,0 c -28.305,38.007 -20.438,91.752 17.573,120.054 38.012,28.304 91.752,20.431 120.049,-17.575 3.524,-4.732 6.486,-9.708 8.9,-14.848 6.58,1.167 11.075,2.291 17.269,3.415 -1.146,2.814 -2.634,5.883 -4.953,9.867 l 0.811,0.603 16.922,13.382 -15.42,20.698 -22.099,-10.216 0.397,0.266 c -5.282,5.036 -10.652,9.681 -16.714,13.41 l 0.508,0.989 5.245,24.622 -23.936,9.607 -14.038,-21.733 -0.064,-0.221 c -8.15,1.744 -16.475,2.539 -24.823,2.286 l -0.158,0.806 -9.228,23.339 -25.283,-5.219 0.248,-25.9 0.019,-0.08 c -5.099,-1.993 -10.108,-4.323 -14.939,-7.171 l -0.42,0.48 -19.309,16.028 -19.656,-16.74 12.641,-22.526 c -3.612,-4.306 -6.891,-8.807 -9.706,-13.542 l -0.452,0.172 -24.649,4.764 -9.182,-24.127 21.856,-13.634 c -1.082,-5.473 -1.765,-11.005 -1.953,-16.589 l -0.459,-0.064 -23.902,-7.671 3.559,-25.572 25.729,-1.579 c 1.676,-5.281 2.243,-8.361 6.471,-15.645 l -0.368,-0.275 -16.991,-17.554 15.415,-20.703 22.938,10.888 c 5.355,-5.103 11.006,-9.661 17.159,-13.414 l -0.225,-0.463 -5.203,-24.609 23.958,-9.574 14.001,21.657 c 8.21,-1.723 16.591,-2.517 25.003,-2.215 l 0.105,-0.553 9.233,-23.357 25.277,5.231 -0.257,25.906 -0.003,0.032 c 4.025,1.595 8.002,3.391 11.877,5.495 -2.61,5.312 -4.923,10.778 -7.617,15.991 C 74.038,-44.506 26.152,-35.122 0,0" /></g></g></g><g
       id="g4178"><g
         clip-path="url(#clipPath4182)"
         id="g4180"><g
           transform="translate(188.9628,226.6818)"
           id="g4186"><path
             inkscape:connector-curvature="0"
             id="path4188"
             style="fill:#2b2b2a;fill-opacity:1;fill-rule:nonzero;stroke:none"
             d="m 0,0 v -0.709 c 0,-0.354 -0.118,-0.472 -0.512,-0.472 h -14.763 v -11.26 h 13.07 c 0.355,0 0.473,-0.118 0.473,-0.472 v -0.709 c 0,-0.393 -0.118,-0.511 -0.473,-0.511 h -13.07 V -25.748 H 0.039 c 0.355,0 0.512,-0.118 0.512,-0.472 v -0.709 c 0,-0.393 -0.157,-0.511 -0.512,-0.511 h -16.613 c -0.394,0 -0.512,0.118 -0.512,0.511 V 0 c 0,0.394 0.118,0.512 0.512,0.512 H -0.512 C -0.118,0.512 0,0.394 0,0" /></g><g
           transform="translate(203.1716,227.7448)"
           id="g4190"><path
             inkscape:connector-curvature="0"
             id="path4192"
             style="fill:#2b2b2a;fill-opacity:1;fill-rule:nonzero;stroke:none"
             d="m 0,0 c 5.275,0 8.267,-1.929 10.315,-6.102 0.196,-0.355 0.078,-0.552 -0.237,-0.67 L 9.291,-7.126 C 8.976,-7.244 8.858,-7.244 8.661,-6.89 6.889,-3.386 4.409,-1.733 0,-1.733 c -5.079,0 -8.032,-2.204 -8.032,-5.983 0,-4.646 4.371,-5.394 8.819,-5.866 4.803,-0.552 9.803,-1.378 9.803,-7.441 0,-5.118 -3.543,-8.031 -10.393,-8.031 -5.512,0 -8.701,2.204 -10.591,6.889 -0.157,0.393 -0.118,0.551 0.276,0.709 l 0.748,0.275 c 0.354,0.118 0.473,0.079 0.669,-0.315 1.693,-3.976 4.488,-5.826 8.898,-5.826 5.669,0 8.582,2.047 8.582,6.22 0,4.646 -4.094,5.236 -8.385,5.748 -4.922,0.59 -10.276,1.417 -10.276,7.519 C -9.882,-3.032 -6.22,0 0,0" /></g><g
           transform="translate(228.5602,227.7448)"
           id="g4194"><path
             inkscape:connector-curvature="0"
             id="path4196"
             style="fill:#2b2b2a;fill-opacity:1;fill-rule:nonzero;stroke:none"
             d="m 0,0 c 6.102,0 9.015,-2.362 10.355,-6.851 0.118,-0.393 0,-0.511 -0.355,-0.669 L 9.291,-7.756 C 8.897,-7.835 8.74,-7.796 8.622,-7.441 7.441,-3.543 5.118,-1.693 0,-1.693 c -5.826,0 -8.779,-2.992 -8.779,-7.953 v -9.724 c 0,-4.921 3.071,-7.992 8.779,-7.992 5.276,0 7.52,2.048 8.701,5.945 0.157,0.354 0.314,0.433 0.669,0.315 l 0.748,-0.275 c 0.355,-0.119 0.433,-0.276 0.315,-0.631 C 9.095,-26.495 6.26,-29.054 0,-29.054 c -6.85,0 -10.59,3.7 -10.59,9.723 v 9.646 C -10.59,-3.701 -6.968,0 0,0" /></g><g
           transform="translate(253.9099,200.3438)"
           id="g4198"><path
             inkscape:connector-curvature="0"
             id="path4200"
             style="fill:#2b2b2a;fill-opacity:1;fill-rule:nonzero;stroke:none"
             d="m 0,0 c 5.748,0 8.543,3.267 8.543,8.346 v 17.992 c 0,0.394 0.118,0.512 0.472,0.512 h 0.866 c 0.355,0 0.473,-0.118 0.473,-0.512 V 8.346 C 10.354,2.244 6.929,-1.693 0,-1.693 c -6.969,0 -10.394,3.937 -10.394,10.039 v 17.992 c 0,0.394 0.118,0.512 0.512,0.512 h 0.827 c 0.354,0 0.472,-0.118 0.472,-0.512 V 8.346 C -8.583,3.267 -5.787,0 0,0" /></g><g
           transform="translate(287.5657,226.6818)"
           id="g4202"><path
             inkscape:connector-curvature="0"
             id="path4204"
             style="fill:#2b2b2a;fill-opacity:1;fill-rule:nonzero;stroke:none"
             d="m 0,0 v -0.709 c 0,-0.354 -0.118,-0.472 -0.512,-0.472 h -14.763 v -11.26 h 13.07 c 0.355,0 0.473,-0.118 0.473,-0.472 v -0.709 c 0,-0.393 -0.118,-0.511 -0.473,-0.511 h -13.07 V -25.748 H 0.039 c 0.355,0 0.512,-0.118 0.512,-0.472 v -0.709 c 0,-0.393 -0.157,-0.511 -0.512,-0.511 h -16.613 c -0.394,0 -0.512,0.118 -0.512,0.511 V 0 c 0,0.394 0.118,0.512 0.512,0.512 H -0.512 C -0.118,0.512 0,0.394 0,0" /></g><g
           transform="translate(294.7272,226.6818)"
           id="g4206"><path
             inkscape:connector-curvature="0"
             id="path4208"
             style="fill:#2b2b2a;fill-opacity:1;fill-rule:nonzero;stroke:none"
             d="m 0,0 v -25.748 h 14.331 c 0.353,0 0.472,-0.118 0.472,-0.472 v -0.709 c 0,-0.393 -0.119,-0.511 -0.472,-0.511 h -15.63 c -0.394,0 -0.512,0.118 -0.512,0.511 V 0 c 0,0.394 0.118,0.512 0.512,0.512 h 0.827 C -0.119,0.512 0,0.394 0,0" /></g><g
           transform="translate(322.5184,225.5793)"
           id="g4210"><path
             inkscape:connector-curvature="0"
             id="path4212"
             style="fill:#2b2b2a;fill-opacity:1;fill-rule:nonzero;stroke:none"
             d="m 0,0 h -0.119 c 0,-0.197 -0.038,-0.906 -0.314,-1.693 L -6.024,-15.669 H 5.984 L 0.394,-1.693 C 0.118,-0.906 0.039,-0.197 0,0 m 11.575,-26.338 h -0.709 c -0.59,0 -0.788,0.079 -0.866,0.433 l -3.504,8.701 H -6.575 l -3.465,-8.701 c -0.117,-0.354 -0.314,-0.433 -0.904,-0.433 h -0.67 c -0.393,0 -0.472,0.197 -0.354,0.472 L -1.063,1.339 c 0.157,0.354 0.315,0.472 0.67,0.472 h 0.787 c 0.354,0 0.55,-0.118 0.669,-0.472 l 10.906,-27.205 c 0.117,-0.275 0.038,-0.472 -0.394,-0.472" /></g><g
           transform="translate(355.2281,225.5007)"
           id="g4214"><path
             inkscape:connector-curvature="0"
             id="path4216"
             style="fill:#2b2b2a;fill-opacity:1;fill-rule:nonzero;stroke:none"
             d="M 0,0 H -6.772 V -24.567 H 0 c 6.141,0 9.566,3.229 9.566,8.701 v 7.165 C 9.566,-3.229 6.181,0 0,0 m 11.378,-8.701 v -7.165 c 0,-6.417 -4.095,-10.393 -11.418,-10.393 h -8.031 c -0.394,0 -0.512,0.118 -0.512,0.511 V 1.181 c 0,0.394 0.118,0.512 0.512,0.512 h 8.031 c 7.323,0 11.418,-3.977 11.418,-10.394" /></g><g
           transform="translate(389.1604,226.6818)"
           id="g4218"><path
             inkscape:connector-curvature="0"
             id="path4220"
             style="fill:#2b2b2a;fill-opacity:1;fill-rule:nonzero;stroke:none"
             d="m 0,0 v -0.709 c 0,-0.354 -0.117,-0.472 -0.512,-0.472 h -14.763 v -11.26 h 13.07 c 0.355,0 0.472,-0.118 0.472,-0.472 v -0.709 c 0,-0.393 -0.117,-0.511 -0.472,-0.511 h -13.07 V -25.748 H 0.04 c 0.354,0 0.511,-0.118 0.511,-0.472 v -0.709 c 0,-0.393 -0.157,-0.511 -0.511,-0.511 h -16.614 c -0.394,0 -0.512,0.118 -0.512,0.511 V 0 c 0,0.394 0.118,0.512 0.512,0.512 H -0.512 C -0.117,0.512 0,0.394 0,0" /></g><g
           transform="translate(404.6284,227.1933)"
           id="g4222"><path
             inkscape:connector-curvature="0"
             id="path4224"
             style="fill:#2b2b2a;fill-opacity:1;fill-rule:nonzero;stroke:none"
             d="M 0,0 H 0.827 C 1.181,0 1.299,-0.118 1.299,-0.512 V -27.44 c 0,-0.394 -0.118,-0.512 -0.472,-0.512 H 0 c -0.394,0 -0.512,0.118 -0.512,0.512 V -0.512 C -0.512,-0.118 -0.394,0 0,0" /></g><g
           transform="translate(433.0105,226.6818)"
           id="g4226"><path
             inkscape:connector-curvature="0"
             id="path4228"
             style="fill:#2b2b2a;fill-opacity:1;fill-rule:nonzero;stroke:none"
             d="m 0,0 v -26.929 c 0,-0.393 -0.117,-0.511 -0.472,-0.511 h -0.827 c -0.275,0 -0.394,0.039 -0.551,0.314 l -13.976,19.921 c -1.299,1.851 -2.362,3.976 -3.189,5.118 h -0.079 c 0,-1.496 0.236,-4.015 0.236,-6.496 v -18.346 c 0,-0.393 -0.117,-0.511 -0.472,-0.511 h -0.787 c -0.394,0 -0.512,0.118 -0.512,0.511 V 0 c 0,0.394 0.118,0.512 0.512,0.512 h 0.787 c 0.315,0 0.472,-0.158 0.552,-0.276 l 13.581,-19.409 c 1.457,-2.086 2.677,-4.291 3.623,-5.63 h 0.079 c 0,1.732 -0.276,4.371 -0.276,7.087 V 0.039 c 0,0.355 0.118,0.473 0.512,0.473 h 0.787 C -0.117,0.512 0,0.394 0,0" /></g><g
           transform="translate(459.8185,212.7845)"
           id="g4230"><path
             inkscape:connector-curvature="0"
             id="path4232"
             style="fill:#2b2b2a;fill-opacity:1;fill-rule:nonzero;stroke:none"
             d="m 0,0 v -4.606 c 0,-5.748 -3.701,-9.488 -10.551,-9.488 -6.929,0 -10.63,3.74 -10.63,9.763 v 9.606 c 0,5.985 3.622,9.685 10.59,9.685 6.103,0 9.016,-2.362 10.355,-6.85 0.117,-0.394 0,-0.512 -0.355,-0.669 L -1.299,7.204 C -1.654,7.086 -1.85,7.165 -1.969,7.52 c -1.18,3.897 -3.504,5.747 -8.622,5.747 -5.866,0 -8.779,-2.992 -8.779,-7.952 v -9.646 c 0,-5.039 3.071,-8.07 8.819,-8.07 5.669,0 8.78,3.031 8.78,7.795 v 3.425 h -8.426 c -0.394,0 -0.511,0.157 -0.511,0.511 v 0.709 c 0,0.355 0.117,0.512 0.511,0.512 h 9.685 C -0.119,0.551 0,0.394 0,0" /></g><g
           transform="translate(482.1748,226.6818)"
           id="g4234"><path
             inkscape:connector-curvature="0"
             id="path4236"
             style="fill:#2b2b2a;fill-opacity:1;fill-rule:nonzero;stroke:none"
             d="m 0,0 v -0.709 c 0,-0.354 -0.117,-0.472 -0.512,-0.472 h -14.763 v -11.26 h 13.07 c 0.355,0 0.472,-0.118 0.472,-0.472 v -0.709 c 0,-0.393 -0.117,-0.511 -0.472,-0.511 h -13.07 V -25.748 H 0.04 c 0.354,0 0.511,-0.118 0.511,-0.472 v -0.709 c 0,-0.393 -0.157,-0.511 -0.511,-0.511 h -16.614 c -0.394,0 -0.512,0.118 -0.512,0.511 V 0 c 0,0.394 0.118,0.512 0.512,0.512 H -0.512 C -0.117,0.512 0,0.394 0,0" /></g><g
           transform="translate(508.1558,226.6818)"
           id="g4238"><path
             inkscape:connector-curvature="0"
             id="path4240"
             style="fill:#2b2b2a;fill-opacity:1;fill-rule:nonzero;stroke:none"
             d="m 0,0 v -26.929 c 0,-0.393 -0.117,-0.511 -0.472,-0.511 h -0.827 c -0.275,0 -0.394,0.039 -0.551,0.314 l -13.976,19.921 c -1.299,1.851 -2.362,3.976 -3.189,5.118 h -0.079 c 0,-1.496 0.236,-4.015 0.236,-6.496 v -18.346 c 0,-0.393 -0.117,-0.511 -0.472,-0.511 h -0.787 c -0.394,0 -0.512,0.118 -0.512,0.511 V 0 c 0,0.394 0.118,0.512 0.512,0.512 h 0.787 c 0.315,0 0.472,-0.158 0.552,-0.276 l 13.581,-19.409 c 1.457,-2.086 2.677,-4.291 3.623,-5.63 h 0.079 c 0,1.732 -0.276,4.371 -0.276,7.087 V 0.039 c 0,0.355 0.118,0.473 0.512,0.473 h 0.787 C -0.117,0.512 0,0.394 0,0" /></g><g
           transform="translate(515.1194,227.1933)"
           id="g4242"><path
             inkscape:connector-curvature="0"
             id="path4244"
             style="fill:#2b2b2a;fill-opacity:1;fill-rule:nonzero;stroke:none"
             d="M 0,0 H 0.827 C 1.181,0 1.299,-0.118 1.299,-0.512 V -27.44 c 0,-0.394 -0.118,-0.512 -0.472,-0.512 H 0 c -0.394,0 -0.512,0.118 -0.512,0.512 V -0.512 C -0.512,-0.118 -0.394,0 0,0" /></g><g
           transform="translate(539.9609,226.6818)"
           id="g4246"><path
             inkscape:connector-curvature="0"
             id="path4248"
             style="fill:#2b2b2a;fill-opacity:1;fill-rule:nonzero;stroke:none"
             d="m 0,0 v -0.709 c 0,-0.354 -0.117,-0.472 -0.512,-0.472 h -14.763 v -11.26 h 13.07 c 0.355,0 0.472,-0.118 0.472,-0.472 v -0.709 c 0,-0.393 -0.117,-0.511 -0.472,-0.511 h -13.07 V -25.748 H 0.04 c 0.354,0 0.511,-0.118 0.511,-0.472 v -0.709 c 0,-0.393 -0.157,-0.511 -0.511,-0.511 h -16.614 c -0.394,0 -0.512,0.118 -0.512,0.511 V 0 c 0,0.394 0.118,0.512 0.512,0.512 H -0.512 C -0.117,0.512 0,0.394 0,0" /></g><g
           transform="translate(556.9244,225.5007)"
           id="g4250"><path
             inkscape:connector-curvature="0"
             id="path4252"
             style="fill:#2b2b2a;fill-opacity:1;fill-rule:nonzero;stroke:none"
             d="M 0,0 H -9.802 V -12.283 H 0 c 3.937,0 6.3,2.165 6.3,6.102 C 6.3,-2.244 4.016,0 0,0 m 8.19,-6.181 c 0,-4.528 -2.677,-7.244 -6.93,-7.598 1.496,-0.63 2.363,-1.614 3.228,-3.229 l 4.41,-8.74 c 0.197,-0.275 0.117,-0.511 -0.276,-0.511 H 7.875 c -0.631,0 -0.827,0.078 -0.985,0.433 l -4.094,8.11 c -1.3,2.598 -2.796,3.74 -6.103,3.74 h -6.495 v -11.772 c 0,-0.393 -0.119,-0.511 -0.473,-0.511 h -0.827 c -0.393,0 -0.512,0.118 -0.512,0.511 V 1.181 c 0,0.394 0.119,0.512 0.512,0.512 H 0.197 c 4.961,0 7.993,-2.874 7.993,-7.874" /></g><g
           transform="translate(571.0167,227.1933)"
           id="g4254"><path
             inkscape:connector-curvature="0"
             id="path4256"
             style="fill:#2b2b2a;fill-opacity:1;fill-rule:nonzero;stroke:none"
             d="M 0,0 H 0.827 C 1.181,0 1.299,-0.118 1.299,-0.512 V -27.44 c 0,-0.394 -0.118,-0.512 -0.472,-0.512 H 0 c -0.393,0 -0.512,0.118 -0.512,0.512 V -0.512 C -0.512,-0.118 -0.393,0 0,0 M 4.016,7.205 4.41,6.772 C 4.646,6.496 4.646,6.338 4.331,6.181 L -2.677,2.165 C -2.992,2.047 -3.149,2.047 -3.307,2.205 L -3.583,2.52 c -0.236,0.275 -0.197,0.394 0.04,0.551 L 3.149,7.283 C 3.464,7.441 3.74,7.52 4.016,7.205" /></g><g
           transform="translate(587.9824,225.5793)"
           id="g4258"><path
             inkscape:connector-curvature="0"
             id="path4260"
             style="fill:#2b2b2a;fill-opacity:1;fill-rule:nonzero;stroke:none"
             d="m 0,0 h -0.119 c 0,-0.197 -0.038,-0.906 -0.314,-1.693 L -6.024,-15.669 H 5.984 L 0.393,-1.693 C 0.117,-0.906 0.039,-0.197 0,0 m 11.575,-26.338 h -0.709 c -0.59,0 -0.788,0.079 -0.866,0.433 l -3.504,8.701 H -6.575 l -3.465,-8.701 c -0.117,-0.354 -0.315,-0.433 -0.904,-0.433 h -0.67 c -0.393,0 -0.472,0.197 -0.355,0.472 L -1.063,1.339 c 0.157,0.354 0.315,0.472 0.669,0.472 h 0.787 c 0.355,0 0.551,-0.118 0.67,-0.472 l 10.905,-27.205 c 0.118,-0.275 0.039,-0.472 -0.393,-0.472" /></g><g
           transform="translate(190.6422,146.7544)"
           id="g4262"><path
             inkscape:connector-curvature="0"
             id="path4264"
             style="fill:#2b2b2a;fill-opacity:1;fill-rule:nonzero;stroke:none"
             d="m 0,0 c 4.386,0 6.611,2.098 6.611,5.848 v 26.443 c 0,1.971 0.635,2.67 2.669,2.67 h 7.183 c 2.035,0 2.734,-0.699 2.734,-2.67 V 6.42 c 0,-10.679 -6.611,-17.544 -19.197,-17.544 -12.523,0 -19.133,6.865 -19.133,17.544 v 25.871 c 0,1.971 0.635,2.67 2.67,2.67 h 7.183 c 2.034,0 2.733,-0.699 2.733,-2.67 V 5.848 C -6.547,2.098 -4.386,0 0,0" /></g><g
           transform="translate(234.3105,182.6687)"
           id="g4266"><path
             inkscape:connector-curvature="0"
             id="path4268"
             style="fill:#2b2b2a;fill-opacity:1;fill-rule:nonzero;stroke:none"
             d="m 0,0 c 9.789,0 15.891,-4.004 18.561,-11.124 0.636,-1.843 0.191,-2.797 -1.716,-3.432 l -6.801,-2.416 c -1.971,-0.572 -2.733,-0.254 -3.433,1.716 -1.144,2.861 -3.051,4.132 -6.611,4.132 -5.022,0 -6.992,-2.161 -6.992,-6.61 v -11.569 c 0,-4.45 1.97,-6.611 6.992,-6.611 3.56,0 5.594,1.398 6.611,4.132 0.763,1.97 1.525,2.415 3.433,1.716 l 6.801,-2.416 c 1.907,-0.636 2.352,-1.589 1.716,-3.432 -2.67,-7.12 -8.772,-11.124 -18.561,-11.124 -12.522,0 -19.578,6.801 -19.578,17.798 v 11.442 C -19.578,-6.801 -12.522,0 0,0" /></g><g
           transform="translate(295.3324,179.0456)"
           id="g4270"><path
             inkscape:connector-curvature="0"
             id="path4272"
             style="fill:#2b2b2a;fill-opacity:1;fill-rule:nonzero;stroke:none"
             d="m 0,0 v -39.792 c 0,-1.97 -0.698,-2.67 -2.669,-2.67 h -7.183 c -1.335,0 -2.034,0.382 -2.606,1.272 l -9.79,15.065 c -2.796,4.386 -3.877,7.373 -5.593,13.094 h -0.509 c 1.335,-6.102 2.098,-9.344 2.098,-16.4 v -10.361 c 0,-1.97 -0.7,-2.67 -2.734,-2.67 h -6.42 c -2.034,0 -2.733,0.7 -2.733,2.67 V 0 c 0,1.971 0.699,2.67 2.733,2.67 h 7.501 c 1.462,0 2.098,-0.381 2.67,-1.272 l 10.425,-16.272 c 2.797,-4.386 3.305,-6.802 5.339,-11.632 h 0.509 c -2.034,6.546 -2.861,9.597 -2.861,16.081 V 0 c 0,1.971 0.636,2.67 2.67,2.67 h 6.484 C -0.698,2.67 0,1.971 0,0" /></g><g
           transform="translate(324.8895,183.5405)"
           id="g4274"><path
             inkscape:connector-curvature="0"
             id="path4276"
             style="fill:#2b2b2a;fill-opacity:1;fill-rule:nonzero;stroke:none"
             d="m 0,0 c 9.324,0 13.774,-3.609 15.821,-10.467 0.179,-0.601 0,-0.782 -0.543,-1.023 l -1.083,-0.36 c -0.6,-0.121 -0.841,-0.061 -1.022,0.481 -1.804,5.955 -5.354,8.782 -13.173,8.782 -8.903,0 -13.415,-4.572 -13.415,-12.151 v -14.858 c 0,-7.519 4.692,-12.211 13.415,-12.211 8.06,0 11.488,3.128 13.293,9.083 0.241,0.541 0.481,0.662 1.023,0.482 l 1.143,-0.422 C 16,-32.844 16.121,-33.085 15.94,-33.626 13.895,-40.484 9.564,-44.393 0,-44.393 c -10.468,0 -16.182,5.654 -16.182,14.858 v 14.737 C -16.182,-5.654 -10.647,0 0,0" /></g><g
           transform="translate(363.0907,180.9539)"
           id="g4278"><path
             inkscape:connector-curvature="0"
             id="path4280"
             style="fill:#2b2b2a;fill-opacity:1;fill-rule:nonzero;stroke:none"
             d="m 0,0 c -8.783,0 -13.475,-4.572 -13.475,-12.272 v -14.677 c 0,-7.699 4.692,-12.271 13.475,-12.271 8.662,0 13.354,4.572 13.354,12.271 v 14.677 C 13.354,-4.572 8.662,0 0,0 m 0,2.587 c 10.466,0 16.121,-5.655 16.121,-14.859 v -14.677 c 0,-9.204 -5.655,-14.858 -16.121,-14.858 -10.587,0 -16.242,5.654 -16.242,14.858 v 14.677 c 0,9.204 5.655,14.859 16.242,14.859" /></g><g
           transform="translate(402.7961,141.7334)"
           id="g4282"><path
             inkscape:connector-curvature="0"
             id="path4284"
             style="fill:#2b2b2a;fill-opacity:1;fill-rule:nonzero;stroke:none"
             d="M 0,0 C 8.662,0 13.354,4.572 13.354,12.272 V 26.949 C 13.354,34.648 8.662,39.22 0,39.22 c -8.783,0 -13.475,-4.572 -13.475,-12.271 V 12.272 C -13.475,4.572 -8.783,0 0,0 M 16.723,-4.511 15.88,-5.173 c -0.421,-0.421 -0.721,-0.361 -1.083,0.06 L 10.286,0.241 C 7.76,-1.624 4.271,-2.586 0,-2.586 c -10.587,0 -16.242,5.654 -16.242,14.858 v 14.677 c 0,9.204 5.655,14.858 16.242,14.858 10.466,0 16.121,-5.654 16.121,-14.858 V 12.272 c 0,-4.331 -1.263,-7.941 -3.729,-10.467 l 4.451,-5.234 c 0.361,-0.421 0.301,-0.721 -0.12,-1.082" /></g><g
           transform="translate(443.6444,141.6736)"
           id="g4286"><path
             inkscape:connector-curvature="0"
             id="path4288"
             style="fill:#2b2b2a;fill-opacity:1;fill-rule:nonzero;stroke:none"
             d="m 0,0 c 8.783,0 13.054,4.993 13.054,12.753 v 27.489 c 0,0.602 0.18,0.783 0.721,0.783 h 1.324 c 0.541,0 0.722,-0.181 0.722,-0.783 V 12.753 c 0,-9.324 -5.234,-15.34 -15.821,-15.34 -10.647,0 -15.88,6.016 -15.88,15.34 v 27.489 c 0,0.602 0.18,0.783 0.782,0.783 h 1.263 c 0.542,0 0.721,-0.181 0.721,-0.783 V 12.753 C -13.114,4.993 -8.843,0 0,0" /></g><g
           transform="translate(469.7551,182.6981)"
           id="g4290"><path
             inkscape:connector-curvature="0"
             id="path4292"
             style="fill:#2b2b2a;fill-opacity:1;fill-rule:nonzero;stroke:none"
             d="m 0,0 h 1.264 c 0.541,0 0.721,-0.18 0.721,-0.782 v -41.145 c 0,-0.601 -0.18,-0.782 -0.721,-0.782 H 0 c -0.601,0 -0.781,0.181 -0.781,0.782 V -0.782 C -0.781,-0.18 -0.601,0 0,0" /></g><g
           transform="translate(519.5634,181.916)"
           id="g4294"><path
             inkscape:connector-curvature="0"
             id="path4296"
             style="fill:#2b2b2a;fill-opacity:1;fill-rule:nonzero;stroke:none"
             d="m 0,0 v -41.145 c 0,-0.601 -0.18,-0.782 -0.722,-0.782 h -1.202 c -0.542,0 -0.722,0.181 -0.722,0.782 v 27.611 c 0,3.127 0.12,6.496 0.421,10.045 H -2.346 C -3.85,-6.617 -5.233,-9.264 -6.857,-12.09 l -10.707,-19.009 c -0.241,-0.482 -0.481,-0.602 -0.962,-0.602 h -0.783 c -0.541,0 -0.781,0.06 -1.022,0.602 l -10.888,19.249 c -1.564,2.707 -2.887,5.293 -4.332,8.361 h -0.119 c 0.24,-3.549 0.36,-6.797 0.36,-10.045 v -27.611 c 0,-0.601 -0.18,-0.782 -0.782,-0.782 h -1.083 c -0.601,0 -0.781,0.181 -0.781,0.782 V 0 c 0,0.602 0.18,0.782 0.781,0.782 h 0.962 c 0.662,0 0.843,-0.18 1.144,-0.662 l 16.121,-28.452 16,28.392 c 0.302,0.542 0.482,0.722 1.083,0.722 h 1.143 C -0.18,0.782 0,0.602 0,0" /></g><g
           transform="translate(547.9621,160.5014)"
           id="g4298"><path
             inkscape:connector-curvature="0"
             id="path4300"
             style="fill:#2b2b2a;fill-opacity:1;fill-rule:nonzero;stroke:none"
             d="M 0,0 H -15.761 V -17.926 H 0 c 5.895,0 9.203,3.128 9.203,9.024 C 9.203,-3.128 5.895,0 0,0 M -0.963,19.61 H -15.761 V 2.526 h 14.798 c 5.594,0 8.782,2.888 8.782,8.602 0,5.595 -3.128,8.482 -8.782,8.482 m 11.61,-8.181 c 0,-5.113 -2.166,-8.421 -6.256,-9.865 v -0.12 c 4.933,-1.083 7.699,-4.692 7.699,-10.587 0,-7.339 -4.631,-11.369 -11.97,-11.369 h -17.866 c -0.601,0 -0.781,0.18 -0.781,0.782 v 41.145 c 0,0.601 0.18,0.782 0.781,0.782 h 17.084 c 7.158,0 11.309,-3.79 11.309,-10.768" /></g><g
           transform="translate(582.9154,180.9539)"
           id="g4302"><path
             inkscape:connector-curvature="0"
             id="path4304"
             style="fill:#2b2b2a;fill-opacity:1;fill-rule:nonzero;stroke:none"
             d="m 0,0 c -8.783,0 -13.475,-4.572 -13.475,-12.272 v -14.677 c 0,-7.699 4.692,-12.271 13.475,-12.271 8.662,0 13.354,4.572 13.354,12.271 v 14.677 C 13.354,-4.572 8.662,0 0,0 m 0,2.587 c 10.466,0 16.121,-5.655 16.121,-14.859 v -14.677 c 0,-9.204 -5.655,-14.858 -16.121,-14.858 -10.587,0 -16.242,5.654 -16.242,14.858 v 14.677 c 0,9.204 5.655,14.859 16.242,14.859" /></g></g></g></g></svg>
